<svg xmlns="http://www.w3.org/2000/svg"  viewBox="0 0 24 24" width="16px" height="16px"><path d="M 6.25 2 C 5.0162029 2 4 3.0162029 4 4.25 L 4 19.75 C 4 20.983797 5.0162029 22 6.25 22 L 17.75 22 C 18.983797 22 20 20.983797 20 19.75 L 20 6.75 A 0.750075 0.750075 0 0 0 19.78125 6.21875 L 15.78125 2.21875 A 0.750075 0.750075 0 0 0 15.25 2 L 6.25 2 z M 6.25 3.5 L 14 3.5 L 14 7.25 A 0.750075 0.750075 0 0 0 14.75 8 L 18.5 8 L 18.5 19.75 C 18.5 20.172203 18.172203 20.5 17.75 20.5 L 6.25 20.5 C 5.8277971 20.5 5.5 20.172203 5.5 19.75 L 5.5 4.25 C 5.5 3.8277971 5.8277971 3.5 6.25 3.5 z M 15.5 4.0605469 L 17.939453 6.5 L 15.5 6.5 L 15.5 4.0605469 z M 8.75 10 A 0.750075 0.750075 0 1 0 8.75 11.5 L 15.25 11.5 A 0.750075 0.750075 0 1 0 15.25 10 L 8.75 10 z M 8.75 13 A 0.750075 0.750075 0 1 0 8.75 14.5 L 15.25 14.5 A 0.750075 0.750075 0 1 0 15.25 13 L 8.75 13 z M 8.75 16 A 0.750075 0.750075 0 1 0 8.75 17.5 L 13.25 17.5 A 0.750075 0.750075 0 1 0 13.25 16 L 8.75 16 z"/></svg>